<?xml version="1.0" encoding="UTF-8" standalone="no"?>
<svg width="59px" height="59px" viewBox="0 0 59 59" version="1.1" xmlns="http://www.w3.org/2000/svg" xmlns:xlink="http://www.w3.org/1999/xlink">
    <!-- Generator: Sketch 41.2 (35397) - http://www.bohemiancoding.com/sketch -->
    <title>Add</title>
    <desc>Created with Sketch.</desc>
    <defs></defs>
    <g id="Page-1" stroke="none" stroke-width="1" fill="none" fill-rule="evenodd">
        <g id="Add" fill="#000000">
            <path d="M29.6,3.8 C43.9,3.8 55.6,15.5 55.6,29.8 C55.6,44.1 43.9,55.8 29.6,55.8 C15.3,55.8 3.6,44.1 3.6,29.8 C3.6,15.5 15.3,3.8 29.6,3.8 L29.6,3.8 Z M29.6,0.8 C13.6,0.8 0.6,13.8 0.6,29.8 C0.6,45.8 13.6,58.8 29.6,58.8 C45.6,58.8 58.6,45.8 58.6,29.8 C58.6,13.8 45.7,0.8 29.6,0.8 L29.6,0.8 Z" id="Shape"></path>
            <g id="Group" transform="translate(16.000000, 16.000000)">
                <rect id="Rectangle-path" x="0.6" y="12.3" width="26" height="3"></rect>
                <rect id="Rectangle-path" x="12.1" y="0.8" width="3" height="26"></rect>
            </g>
        </g>
    </g>
</svg>