<?xml version="1.0" encoding="UTF-8" standalone="no"?>
<!-- Generator: Adobe Illustrator 24.3.0, SVG Export Plug-In . SVG Version: 6.00 Build 0)  -->

<svg
   version="1.0"
   id="katman_1"
   x="0px"
   y="0px"
   viewBox="0 0 505.48546 450.86997"
   xml:space="preserve"
   sodipodi:docname="check_logo.svg"
   width="505.48547"
   height="450.87"
   inkscape:version="1.2.2 (732a01da63, 2022-12-09)"
   xmlns:inkscape="http://www.inkscape.org/namespaces/inkscape"
   xmlns:sodipodi="http://sodipodi.sourceforge.net/DTD/sodipodi-0.dtd"
   xmlns="http://www.w3.org/2000/svg"
   xmlns:svg="http://www.w3.org/2000/svg"><defs
   id="defs87" /><sodipodi:namedview
   id="namedview85"
   pagecolor="#ffffff"
   bordercolor="#000000"
   borderopacity="0.25"
   inkscape:showpageshadow="2"
   inkscape:pageopacity="0.0"
   inkscape:pagecheckerboard="0"
   inkscape:deskcolor="#d1d1d1"
   showgrid="false"
   inkscape:zoom="0.99423523"
   inkscape:cx="344.98878"
   inkscape:cy="239.37997"
   inkscape:window-width="1920"
   inkscape:window-height="1017"
   inkscape:window-x="-8"
   inkscape:window-y="-8"
   inkscape:window-maximized="1"
   inkscape:current-layer="katman_1" />
<style
   type="text/css"
   id="style2">
	.st0{fill:#0A3A67;}
	.st1{fill:#1E9CD7;}
	.st2{fill:url(#svg_4_1_);}
	.st3{fill:url(#svg_5_1_);}
	.st4{fill:#0075BE;}
	.st5{fill:url(#svg_7_1_);}
	.st6{fill:url(#svg_8_1_);}
	.st7{fill:#BBD5F1;}
</style>
<g
   id="g82"
   transform="translate(-168.99,-71.88)">
	<path
   id="svg_1"
   class="st0"
   d="m 291.2,415.71 -55.25,-31.9 c -0.82,-0.57 -1.63,-1.12 -2.72,-1.74 -24.04,-13.91 -41.67,-30.6 -47.55,-41.24 l 8.33,14.52 21.06,36.7 v 0 L 274.5,495 c 9.9,17.18 28.22,27.75 48.04,27.74 h 41.71 l 56.15,-32.41 z" />
	<path
   id="svg_2"
   class="st1"
   d="m 618.66,375.86 -69.47,40.13 -128.78,74.35 -56.15,32.41 H 518.8 c 19.83,0.01 38.15,-10.57 48.06,-27.74 l 51.57,-89.32 v 0 l 36.64,-63.44 c -0.18,0.33 -0.39,0.63 -0.57,0.96 -7.39,13.65 -18.07,22.01 -35.84,32.65 z" />
	<path
   id="svg_3"
   class="st1"
   d="m 226.19,183.48 c 7.7,-13.34 20.22,-20.81 35.03,-24.27 6.58,-1.49 13.3,-2.28 20.04,-2.35 l 298,0.24 c 1.27,-21.41 -3.21,-43.1 -11.5,-56.01 l -0.84,-1.47 C 557,82.45 538.68,71.88 518.86,71.88 H 322.6 c -19.82,0 -38.14,10.57 -48.04,27.74 l -33.03,57.21 v 0 z" />
	
		<linearGradient
   id="svg_4_1_"
   gradientUnits="userSpaceOnUse"
   x1="379.42831"
   y1="158.6198"
   x2="380.9762"
   y2="158.6198"
   gradientTransform="matrix(1,0,0,-1,3.051759e-5,596.7244)">
		<stop
   offset="0"
   style="stop-color:#BBD5F1"
   id="stop7" />
		<stop
   offset="0.07"
   style="stop-color:#B2D2EF"
   id="stop9" />
		<stop
   offset="0.18"
   style="stop-color:#98C8EB"
   id="stop11" />
		<stop
   offset="0.33"
   style="stop-color:#6FB9E4"
   id="stop13" />
		<stop
   offset="0.5"
   style="stop-color:#36A5DB"
   id="stop15" />
		<stop
   offset="0.57"
   style="stop-color:#1E9CD7"
   id="stop17" />
		<stop
   offset="0.87"
   style="stop-color:#0075BE"
   id="stop19" />
		<stop
   offset="0.99"
   style="stop-color:#005B97"
   id="stop21" />
	</linearGradient>
	<path
   id="svg_4"
   class="st2"
   d="m 331.05,438.56 -1.55,-0.9 v 0 z"
   style="fill:url(#svg_4_1_)" />
	
		<linearGradient
   id="svg_5_1_"
   gradientUnits="userSpaceOnUse"
   x1="380.9761"
   y1="157.0916"
   x2="384.71829"
   y2="157.0916"
   gradientTransform="matrix(1,0,0,-1,3.051759e-5,596.7244)">
		<stop
   offset="0"
   style="stop-color:#BBD5F1"
   id="stop25" />
		<stop
   offset="0.07"
   style="stop-color:#B2D2EF"
   id="stop27" />
		<stop
   offset="0.18"
   style="stop-color:#98C8EB"
   id="stop29" />
		<stop
   offset="0.33"
   style="stop-color:#6FB9E4"
   id="stop31" />
		<stop
   offset="0.5"
   style="stop-color:#36A5DB"
   id="stop33" />
		<stop
   offset="0.57"
   style="stop-color:#1E9CD7"
   id="stop35" />
		<stop
   offset="0.87"
   style="stop-color:#0075BE"
   id="stop37" />
		<stop
   offset="0.99"
   style="stop-color:#005B97"
   id="stop39" />
	</linearGradient>
	<path
   id="svg_5"
   class="st3"
   d="m 331.05,438.56 3.74,2.16 z"
   style="fill:url(#svg_5_1_)" />
	<path
   id="svg_6"
   class="st4"
   d="m 329.5,437.65 c -32.7,-18.89 -40.89,-44 -44.36,-73.78 L 261.22,159.21 c -14.77,3.47 -27.43,10.93 -35.03,24.27 l -49.76,86.09 c -9.92,17.17 -9.92,38.32 0,55.49 l 17.5,30.29 -8.25,-14.52 c 5.88,10.64 23.51,27.33 47.63,41.14 1.1,0.63 1.96,1.18 2.72,1.74 l 55.25,31.9 v -0.18 z" />
	
		<linearGradient
   id="svg_7_1_"
   gradientUnits="userSpaceOnUse"
   x1="554.62341"
   y1="155.8573"
   x2="557.48383"
   y2="155.8573"
   gradientTransform="matrix(1,0,0,-1,3.051759e-5,596.7244)">
		<stop
   offset="0"
   style="stop-color:#BBD5F1"
   id="stop44" />
		<stop
   offset="0.07"
   style="stop-color:#B2D2EF"
   id="stop46" />
		<stop
   offset="0.18"
   style="stop-color:#98C8EB"
   id="stop48" />
		<stop
   offset="0.33"
   style="stop-color:#6FB9E4"
   id="stop50" />
		<stop
   offset="0.5"
   style="stop-color:#36A5DB"
   id="stop52" />
		<stop
   offset="0.57"
   style="stop-color:#1E9CD7"
   id="stop54" />
		<stop
   offset="0.87"
   style="stop-color:#0075BE"
   id="stop56" />
		<stop
   offset="0.99"
   style="stop-color:#005B97"
   id="stop58" />
	</linearGradient>
	<path
   id="svg_7"
   class="st5"
   d="m 504.69,441.69 2.86,-1.65 z"
   style="fill:url(#svg_7_1_)" />
	
		<linearGradient
   id="svg_8_1_"
   gradientUnits="userSpaceOnUse"
   x1="558.13037"
   y1="157.8459"
   x2="560.87329"
   y2="157.8459"
   gradientTransform="matrix(1,0,0,-1,3.051759e-5,596.7244)">
		<stop
   offset="0"
   style="stop-color:#BBD5F1"
   id="stop62" />
		<stop
   offset="0.07"
   style="stop-color:#B2D2EF"
   id="stop64" />
		<stop
   offset="0.18"
   style="stop-color:#98C8EB"
   id="stop66" />
		<stop
   offset="0.33"
   style="stop-color:#6FB9E4"
   id="stop68" />
		<stop
   offset="0.5"
   style="stop-color:#36A5DB"
   id="stop70" />
		<stop
   offset="0.57"
   style="stop-color:#1E9CD7"
   id="stop72" />
		<stop
   offset="0.87"
   style="stop-color:#0075BE"
   id="stop74" />
		<stop
   offset="0.99"
   style="stop-color:#005B97"
   id="stop76" />
	</linearGradient>
	<path
   id="svg_8"
   class="st6"
   d="m 510.9,438.09 v 0 l -2.74,1.59 z"
   style="fill:url(#svg_8_1_)" />
	<path
   id="svg_9"
   class="st7"
   d="m 665.04,269.57 -65.07,-112.7 v 0 l -32.01,-55.47 -0.22,-0.35 v 0 c 8.29,12.85 12.77,34.6 11.5,56.01 -0.16,2.39 -0.31,4.78 -0.61,7.15 v 0 l -23.71,203.13 c -3.68,28.47 -12.36,52.57 -43.98,70.83 l 38.3,-22.12 v 0 l 69.42,-40.2 c 17.63,-10.64 28.39,-19 35.83,-32.66 l 10.48,-18.14 c 9.94,-17.15 9.96,-38.3 0.07,-55.48 z" />
	<path
   id="svg_10"
   class="st0"
   d="m 672.85,114.71 c -2.98,-4.09 -9.8,-5.88 -17.26,-1.39 -83.39,50.82 -160.27,127 -228.51,226.41 -0.21,0.3 -0.55,0.49 -0.92,0.49 -0.72,0.07 -1.44,-0.18 -1.96,-0.69 L 386.39,301.09 360.92,276.7 c -19.14,-19.46 -52.9,-8.11 -65.03,3.17 l -1.72,1.63 1.49,1.84 c 4.31,5.37 105.64,131.27 120.28,141.71 3.58,2.33 7.78,3.51 12.05,3.37 2.56,-0.01 5.1,-0.33 7.58,-0.94 11.86,-3.25 21.72,-11.51 27.02,-22.61 l 1.61,-3.13 c 55.25,-109.56 127.82,-205.9 204.31,-271.26 7.21,-6.07 6.83,-12.32 4.34,-15.77 z" />
</g>
</svg>
